<?xml version="1.0" encoding="utf-8"?>
<!-- Generator: Adobe Illustrator 24.1.2, SVG Export Plug-In . SVG Version: 6.00 Build 0)  -->
<svg version="1.1" id="Слой_1" xmlns="http://www.w3.org/2000/svg" xmlns:xlink="http://www.w3.org/1999/xlink" x="0px" y="0px"
	 viewBox="0 0 450 450" style="enable-background:new 0 0 450 450;" xml:space="preserve">
<style type="text/css">
	.st0{fill:#88BA89;stroke:#000000;stroke-width:8;}
	.st1{fill:#8AC6AC;stroke:#000000;stroke-width:8;}
	.st2{fill:#FFFFFF;stroke:#000000;stroke-width:4;}
	.st3{fill:#FF354B;stroke:#000000;stroke-width:4;}
	.st4{fill:#FFFFFF;stroke:#000000;}
	.st5{fill:#FFFFFF;}
	.st6{fill:#FF6A83;}
	.st7{fill:none;stroke:#000000;stroke-width:4;}
	.st8{fill:#8AC6AC;stroke:#000000;stroke-width:8;stroke-linecap:round;}
	.st9{fill:none;stroke:#000000;stroke-width:8;stroke-linecap:round;}
	.st10{fill:#FFFFFF;stroke:#000000;stroke-width:4;stroke-linecap:round;}
	.st11{fill:#5EC6AC;stroke:#000000;stroke-width:4;}
	.st12{fill:#FFFFFF;stroke:#000000;stroke-width:8;}
	.st13{fill:none;stroke:#000000;stroke-width:8;}
</style>
<g>
	<path class="st0" d="M163.64,110.32c0,0,5.36-19.15,13.53-27.06c8.17-7.91,40.34-22.98,56.43-26.04
		c16.09-3.06,29.62-1.53,36.26-1.28c6.64,0.26,15.57,1.02,23.49,0.77c7.91-0.26,21.96-2.81,27.32-4.34
		c5.36-1.53,14.41-5.85,16.85-8.43c2.98-3.15,6-7.46,8.43-11.49c2.06-3.42,3.06-5.87,2.81-7.4c-0.26-1.53,7.32,3.06,9.7,6.89
		c2.3,3.7,4.09,9.45,3.83,11.49s2.36-2.17,3.83-3.38c1.47-1.21,4.63-3.71,7.49-5.3c2.02-1.12,6.29-2.88,10.21-3.57
		c4.34-0.77,5.19,0.34,5.19,0.34s-3.91,6.55-5.19,10.98c-1.28,4.43-2.82,8.76-3.06,10.81c-0.22,1.88-0.43,3.74-0.43,3.74
		s2.48-4.65,4.34-5.96c1.71-1.2,7.91-2.04,11.74-2.04c3.83,0,7.66,0.94,7.66,0.94s-2.36,2.51-3.91,4.77
		c-1.74,2.53-4.17,6.3-5.11,8.51c-0.94,2.21-3.28,9.85-3.66,13.11c-0.37,3.13,0.1,11.97,1.28,16.09c1.09,3.8,7.57,22.04,10.55,26.98
		c2.98,4.94,9.87,14.98,12.51,19.66s9.79,17.87,10.64,21.36c0.85,3.49,7.23,20.43,8,24.77s4.85,24.6,4.85,28.85
		c0,4.26-2.55,21.7-4,26.72c-1.45,5.02-12.77,27.23-15.66,30.13s-16.85,11.15-17.96,12s-8.43,2.81-8.43,2.81L163.64,110.32z"/>
	<path class="st1" d="M68.18,100.23c0,0-21.06,21.7-20.81,50.04c-1.53,3.7-11.36,18-15.45,25.4s-16.72,33.45-18.89,56.43
		c-2.17,22.98-2.55,20.3-2.04,28.98c2.68,6.77,9.96,15.32,15.32,19.53s29.11,20.43,35.49,23.49c0.77,4.85,0.77,20.55,2.04,29.62
		s7.02,27.96,12.13,39.06c5.11,11.11,4.98,12.38,7.66,17.62c2.68,5.23,6.89,11.62,9.06,13.02c2.17,1.4,6.51,4.34,13.4,4.72
		c6.89,0.38,14.81,1.53,20.55,0c5.74-1.53,14.43-7.53,15.83-9.83c1.4-2.3,19.66-31.91,21.19-35.62c1.53-3.7,1.28-3.7,2.68-3.45
		s14.38,5.53,18.3,5.87c1.87,5.11,4.6,12.43,10.21,16.34s13.45,9.19,15.66,9.53c1.87,3.23,0.51,6.64,0.68,9.36s1.02,11.06,3.74,12.6
		s34.72,6.3,43.91,4.94s17.53-5.96,21.28-10.04c3.74-4.09,22.47-23.49,24-28.6c12.6,0,14.81,0.68,14.81,0.68s0.85,6.64,6.13,13.96
		c5.28,7.32,17.53,14.47,20.26,14.64c2.72,0.17,37.62,2.55,41.7,1.36c4.09-1.19,10.72-8.85,11.23-10.38
		c0.51-1.53,14.13-19.57,15.15-35.23c1.02-15.66,1.7-38.81-2.04-50.55c-3.74-11.74-11.79-25.12-12.77-27.06
		c-0.97-1.94-17.36-28.26-26.04-35.74c-8.68-7.49-84.68-60.17-92.34-77.53c-4.85-18.15-12-46.98-13.02-53.87s-8.43-15.23-8.43-15.23
		s-15.49,0.09-31.83,6.89c-16.34,6.81-20.34,6.47-20.34,6.47s-16.77-4.68-26.89-5.62c-10.13-0.94-48.34-2.21-63.57-0.43
		c-5.7,0.6-6.81,0.17-8.6-1.19C105.75,109.04,96.56,100.45,68.18,100.23z"/>
	<path class="st2" d="M27.2,245.98c0,0-5.96-4.6-5.45-15.66c0.51-11.06,2.89-24.68,7.49-32.68s10.55-15.15,12.77-16.68
		c2.21-1.53,4.09-2.55,6.13-2.89c3.06,1.53,2.38,0.68,3.23,4.26c0.34,1.43,0.84,3.19,1.33,5.47c0.09,0.41,0.17,0.83,0.26,1.28
		c0.62,3.27,1.14,7.5,1.14,13.17c0,10.72,0.34,25.53,0,31.49c-0.34,5.96-0.68,13.28-1.36,16s1.53,5.28-3.23,4.94
		S32.14,249.38,27.2,245.98z"/>
	<path class="st2" d="M172.39,255.51c0,0-0.01-0.29-0.02-0.82c-0.09-4.89-0.2-30.36,7.17-41.56c8.17-12.43,20.43-25.19,24.68-27.23
		c4.26-2.04,4.77-3.23,9.02-2.21c4.26,1.02,11.06,3.74,16,10.89c4.94,7.15,10.38,16.48,11.57,24.84c1.19,8.36,3.4,19.93,2.89,24.36
		c-0.51,4.43-1.53,8-6.47,9.7c-4.94,1.7-25.19,6.47-38.64,7.15s-24.17,2.24-25.19-1.43C172.39,255.51,172.39,255.51,172.39,255.51z"
		/>
	<path class="st3" d="M41.62,252.57c0,0-1.56-2.85-2.71-6.55c-1.15-3.7-1.79-11.62-2.17-18s0-15.45,1.46-21.06
		c1.46-5.62,6.71-16.98,11.43-20.3c0,0,1.85-0.81,3.28,1.13c0.87,1.17,1.25,10.25,1.42,17.25c0.11,4.59,0.13,8.3,0.13,8.3v26.3
		l-1.64,11.87l-0.24,2.56l-2.86,0.59L41.62,252.57z"/>
	<path class="st4" d="M16.24,185.5"/>
	<path class="st5" d="M49.8,204.11c0,0-3.93,4.02-4.47,12.25c-0.54,8.24-1.5,14.96,0.44,19.22c1.94,4.26,3.21,5.88,4.4,5.8
		c1.19-0.08,2.03-1.74,1.29-1.74l1-26.3v-8.3C52.21,205.06,51.59,202.93,49.8,204.11z"/>
	<path class="st3" d="M214.05,183.89c0,0-9.14,6.77-11.87,15.96c-2.72,9.19-4.17,17.62-4.68,24.34s0.51,18.98,0.94,20.85
		c0.43,1.87,3.06,11.23,5.11,12.68c2.04,1.45,4.53,1.95,4.53,1.95l12.65-2.17l19.13-5.35l3.46-5.87c0,0-1.32-19.16-1.62-21.07
		c-0.3-1.91-1.95-18.56-10.75-28.1C222.17,187.58,222.76,186.47,214.05,183.89z"/>
	<ellipse class="st5" cx="220.46" cy="222.74" rx="6" ry="17.5"/>
	<polygon class="st6" points="48.71,279.64 74.31,287.08 91.87,290.81 121.92,291.66 162.01,290.13 185.98,288.75 216.97,282.34 
		206.15,291.1 193.27,299.61 174.7,309.94 155.76,315 134.03,316.94 111.93,313.07 90.4,306.53 76.22,299.83 57.74,287.33 
		53.34,284.71 	"/>
	<path class="st7" d="M21.01,258.28c0,0-0.06,4.98,1.4,6.32c1.47,1.34,22.79,14.04,26.04,14.49c0.33,0.05,0.77,0.14,1.3,0.26
		c4.58,1.11,15.69,4.99,20.22,6.25c5.04,1.4,6.58,2.97,12.55,3.65c5.96,0.69,10.05,2.54,21.79,2.09s67.06-0.26,83.23-2.81
		s31.83-6.81,39.66-10.38c7.83-3.57,14.88-6.81,16.12-8.68c1.24-1.87,2.6-4.26,2.6-4.94"/>
	<path class="st7" d="M218.29,281.47c-6.14,6.72-31.13,22.13-37.26,25.58c-6.13,3.45-21.96,9.19-42.51,9.57
		c-20.55,0.38-33.19-6.26-42.72-8.31s-28.96-14.67-31.64-16.01c-2.68-1.34-12.51-8.87-12.51-8.87s-2.74-3.19-3.19-4.34"/>
	<path class="st8" d="M66.18,133.81c0,0-15.45,10.56-18.81,16.47"/>
	<path class="st8" d="M84.22,125.47c0,0,20.26-12.43,25.87-13.79"/>
	<line class="st8" x1="105.58" y1="272.96" x2="100.73" y2="276.79"/>
	<line class="st8" x1="66.18" y1="269.13" x2="69.07" y2="274.84"/>
	<path class="st9" d="M269.75,281.38c0,0-8.94,17.87-32.17,27.83c-23.23,9.96-57.45,19.91-73.02,20.43
		c-15.57,0.51-52.6-0.51-63.83-5.36S61.8,304.11,61.8,304.11"/>
	<path class="st9" d="M133.37,339.08c0,0,26.08,19.15,32.98,20.17"/>
	<path class="st9" d="M216.97,369.72c0,0-19.68-0.71-32.32-4.6"/>
	<path class="st9" d="M239.88,316.94c0,0-24.88,45.42-28.65,75.78"/>
	<path class="st9" d="M322.86,297.86c0,0,2.04,23.86,0,35.86c-2.04,12-18.72,45.53-18.72,45.53"/>
	<path class="st9" d="M348.39,299.77c0,0-20.04,17.47-25.53,33.96s-11.65,30.26-3.91,46.21"/>
	<polygon class="st10" points="216.97,282.34 211.23,295.68 204.4,285.24 	"/>
	<polyline class="st10" points="49.75,279.35 52.48,289.01 59.65,282.34 	"/>
	<path class="st11" d="M99.2,155.23c0,0,15.32,18.66,21.7,18.92s52.85-27.32,51.45-40.34C170.95,120.79,104.05,146.78,99.2,155.23z"
		/>
	<path class="st11" d="M77.75,176.19c0,0-2.3,15.06,1.79,16.09c4.09,1.02,8.43,0.51,9.45-3.32c1.02-3.83,2.04-14.81,0-17.11
		C86.95,169.55,79.29,172.87,77.75,176.19z"/>
	<path class="st11" d="M104.56,215.25c-0.39-1.96,23.74-27.83,25.53-19.4c1.79,8.43,2.04,38.3-1.79,36.77
		C124.48,231.08,106.61,225.47,104.56,215.25z"/>
	<path class="st11" d="M70.67,359.25c0,0,25.97-35.23,30.06-25.28c4.09,9.96,9.45,20.17,7.4,24c-2.04,3.83-3.06,18.13-13.53,17.62
		s-18.64-2.81-18.64-2.81L70.67,359.25z"/>
	<path class="st11" d="M221.19,357.35c0,0,21.76-12.9,26.35-14.43c4.6-1.53,7.4-1.79,6.13,4.6c-1.28,6.38-4.36,32.43-10.35,37.28
		c-5.99,4.85-12.94,10.5-17.76,7.93s-10.85-7.69-11.26-10.48C213.88,379.44,221.19,357.35,221.19,357.35z"/>
	<path class="st11" d="M258.01,332.21c0,0,6.13-7.67,14.04-8.7s3.83,18.49,3.83,18.49s-2.81,5.76-6.13,4.74
		C266.44,345.72,260.05,340.13,258.01,332.21z"/>
	<path class="st11" d="M337.41,336.79c0,0-1.79-6.97,7.4-13.32c9.19-6.34,16.09-13.49,23.74-15.03c7.66-1.53,10.98,38.04,7.91,44.43
		c-3.06,6.38-8.94,11.49-14.04,10.21C357.33,361.81,339.2,346.74,337.41,336.79z"/>
	<path class="st11" d="M302.95,216.79c0,0-2.98-1.89-0.6,7.99c2.38,9.88,18.98,41.8,24.34,43.07c5.36,1.28,25.76,3.57,30.75,1.28
		c4.99-2.3,5.77-3.44,5-7.59C361.67,257.38,302.95,216.79,302.95,216.79z"/>
	<path class="st12" d="M84.51,392.06c0,0-3.3,9.96-3.69,13.15c-0.38,3.19,9.34-4.39,9.34-4.39L84.51,392.06z"/>
	<path class="st12" d="M95.37,394.87c0,0-8.04,9.57-8.55,15.83c-0.51,6.26,19.15-5.49,19.15-5.49S102.9,397.81,95.37,394.87z"/>
	<path class="st12" d="M118.09,397.81c0,0-7.02,6.64-6.51,12.51c0.51,5.87,12.89-1.15,13.4-3.57
		C125.5,404.32,124.09,398.19,118.09,397.81z"/>
	<path class="st12" d="M198.25,383.8c0,0-1.26,7.15-0.49,9.56c0.77,2.4,8.43-4.42,7.84-4.78S198.25,383.8,198.25,383.8z"/>
	<path class="st12" d="M212.5,403.7c0,0-4.92,3.04-5.05,11.47s14.31-0.59,14.31-0.59S219.46,406.03,212.5,403.7z"/>
	<path class="st12" d="M232.99,407.38c0,0-6.06,3.44-7.43,7.85s4.37,9.9,5.39,10.03c1.02,0.13,11.72-1.99,12.37-7.76
		S238.35,408.15,232.99,407.38z"/>
	<path class="st12" d="M255.97,410.45c-5.52,0.66-7.59,4.06-6.54,7.52s4.63,5.88,5.65,6.39s7.49-1.96,7.64-7.24
		C262.86,411.85,259.16,410.06,255.97,410.45z"/>
	<path class="st12" d="M334.99,399.08c0,0-4.37,3.19-3.14,10.09c1.23,6.89,9.25,0.38,10.28-1.79
		C343.16,405.21,340.09,399.1,334.99,399.08z"/>
	<path class="st12" d="M354.78,400.49c0,0-4.6,0.3-3.96,10.75s13.64,1.52,14.17,0C365.52,409.72,362.82,400.23,354.78,400.49z"/>
	<path class="st12" d="M377.61,402.53c0,0-7.52,2.58-7.26,7.87c0.26,5.28,6.77,6.57,7.79,5.92c1.02-0.64,7.79-1.59,7.53-6.22
		C385.41,405.47,380.4,402.15,377.61,402.53z"/>
	<path class="st13" d="M243.79,106.08c0,0,11.67-25.38,61.71-29.97c50.04-4.6,55.91-27.06,57.7-32.68"/>
	<path class="st13" d="M381.24,57.04c0,0-17.02,41.4,4.94,85s10.47,70.58,2.55,78.53s-26.71,15.57-33.53,17.25"/>
</g>
</svg>
