<?xml version="1.0" encoding="utf-8"?>
<!-- Generator: Adobe Illustrator 24.1.2, SVG Export Plug-In . SVG Version: 6.00 Build 0)  -->
<svg version="1.1" id="Слой_1" xmlns="http://www.w3.org/2000/svg" xmlns:xlink="http://www.w3.org/1999/xlink" x="0px" y="0px"
	 viewBox="0 0 450 450" style="enable-background:new 0 0 450 450;" xml:space="preserve">
<style type="text/css">
	.st0{fill:#EAAB7D;stroke:#000000;stroke-width:8;}
	.st1{fill:#FFFFFF;stroke:#000000;stroke-width:8;}
	.st2{fill:#FFFFFF;stroke:#000000;stroke-width:8;stroke-linecap:round;}
	.st3{fill:#F5E7CD;stroke:#000000;stroke-width:8;}
	.st4{fill:#F5E7CD;stroke:#000000;stroke-width:8;stroke-linecap:round;}
	.st5{fill:none;stroke:#000000;stroke-width:8;stroke-linecap:round;}
	.st6{fill:#F5E7CD;stroke:#000000;stroke-width:4;stroke-linecap:round;}
	.st7{fill:#9A6A80;}
	.st8{fill:none;stroke:#000000;stroke-width:4;stroke-linecap:round;}
	.st9{fill:#FFFFFF;stroke:#000000;stroke-width:4;stroke-linecap:round;}
	.st10{fill:#FFFFFF;stroke:#000000;stroke-width:4;}
	.st11{fill:#336F83;stroke:#000000;stroke-width:4;}
	.st12{fill:#DD553B;stroke:#000000;stroke-width:8;}
	.st13{fill:#EAAB7D;stroke:#000000;stroke-width:4;stroke-linecap:round;}
</style>
<g>
	<path class="st0" d="M129.71,193.32c0,0-35.74-12.26-48.77-24.26s-18.13-14.81-17.11-22.21c1.02-7.4,4.09-18.64,5.11-23.23
		s1.02-37.02,2.81-41.87c1.79-4.85-1.02-10.47,2.04-17.62c3.06-7.15,17.87-29.62,25.02-34.47c7.15-4.85,25.02-17.36,40.34-18.38
		s34.98-3.83,49.79,13.28c14.81,17.11,39.83,63.83,37.79,94.98c-2.04,31.15-15.06,49.28-16.34,59.23s-5.11,10.98,0,12.51
		c5.11,1.53,34.72,12.51,51.57,19.15c16.85,6.64,20.68,8.68,20.68,8.68s16.09-9.45,19.15-5.62c3.06,3.83-4.34,12.34-4.34,12.34
		s18.13-2.04,17.11,1.7s-10.55,8.34-9.7,9.53c0.85,1.19,8.68,4.77,6.3,6.81c-2.38,2.04-9.02,1.7-12.77,3.74
		c-3.74,2.04-12.94,8-22.81,9.7c-9.87,1.7-31.83,2.38-34.72,2.04s-1.53,2.21-1.53,2.21s33.87,50.38,38.64,58.72
		c4.77,8.34,6.47,11.06,8,14.13c1.53,3.06,0,3.91,9.02,4.43c9.02,0.51,22.81,2.04,32.68-4.26s35.4-20.09,41.36-40.34
		s5.91-24.6,7.06-26.51c1.15-1.91,3.19-3.45,4.85-0.77c1.66,2.68,3.7,14.04,3.06,20.43c-0.64,6.38-2.17,23.87-4.47,30.89
		c-2.3,7.02-8.81,22.21-13.66,27.96c-4.85,5.74-16.21,20.3-19.4,22.21s-10.85,8.17-18.77,11.36s-28.21,10.21-31.15,10.6
		c-2.94,0.38-2.04,9.96,0.51,13.15s4.6,5.11,4.6,5.11l-3.06,6.26l-4.98,5.11l-9.32,6.51l-7.02,3.96c0,0-9.06-0.51-9.45-0.51
		c-0.1,0-1.16-0.01-2.72-0.1c-4.31-0.24-12.42-1.08-14.39-3.99c-2.68-3.96-5.96-15.49-8.85-20.51c-2.89-5.02-11.6-18.21-16.35-18.55
		s-34.88-4.09-39.31-3.91c-4.43,0.17-38.13,5.11-39.32,7.83c-1.19,2.72-0.68,13.96-0.68,13.96s-0.34,3.4-8.85,4.77
		s-31.32,6.64-32.34,7.32s-3.4-0.51-3.4-0.51l-14.98-5.28l-10.55-3.57l-5.45-5.79c0,0,11.06-7.83,11.57-9.87
		c0.51-2.04-5.28-7.83-5.62-12.77c-0.34-4.94-2.55-17.19,0.17-24.85s17.02-28.94,19.91-31.49s12.77-10.38,15.15-12.43
		s2.55-3.23,2.21-7.15c-0.34-3.91,2.89-44.6,3.06-46.47c0.17-1.87-4.6,1.7-9.36,2.04c-4.77,0.34-38.64-1.02-41.53,0
		s-11.23,6.13-12.94,4.94c-1.7-1.19,3.74-8.68,1.7-12.09s-20.77-14.47-19.06-16.68c1.7-2.21,12.26-4.26,13.79-4.09
		s-2.04-2.87-2.89-5.44c-0.85-2.56,5.45-2.05,7.49-0.86c2.04,1.19,1.02-4.6,2.89-5.28c1.87-0.68,3.91,3.91,6.47,3.74
		S128.86,195.54,129.71,193.32z"/>
	<path class="st1" d="M55.92,416.98c0,0,8.73-10.83,14.72-15.32c6-4.49,5.45,5.79,5.45,5.79S68.18,420.56,55.92,416.98z"/>
	<path class="st1" d="M63.84,426.18c0,0,9.45-13.96,12.26-18.72s3.57-6.04,5.36-5.02c1.79,1.02,9.32,5.74,7.91,8.68
		C87.96,414.05,65.62,425.92,63.84,426.18z"/>
	<path class="st1" d="M92.05,409.07c0,0,0.64-2.17,3.83-1.27s12.04,7.06,9.15,9.02s-24.72,10.13-26,10.26S88.35,411.49,92.05,409.07
		z"/>
	<path class="st1" d="M288.43,439.54c-7.57-1.45-22.55-9.59-22.55-9.59s-0.09-6.58,2.64-8.96c2.72-2.38,6.38-0.77,8,1.7
		C278.13,425.15,288.43,439.54,288.43,439.54z"/>
	<path class="st1" d="M283.66,426.26c0,0,3.4-8.77,5.53-9.96c2.13-1.19,8.26,1.96,12.17,6.13c3.91,4.17,8.77,9.62,10.13,11.4
		s-11.66,2.55-13.45,2.04c-1.79-0.51-12.94-6.09-14.38-8.96"/>
	<path class="st1" d="M297.11,417.58l4.94-7.91c0,0,11.06,8.09,13.79,13.19c2.72,5.11-16.6-2.21-18.72-4.68"/>
	<path class="st2" d="M125.71,210.6c0,0-7.61,43.81-8.78,45.57"/>
	<path class="st3" d="M157.54,204.73c0,0,41.45,13.28,56.09,61.96s12.43,49.87,11.4,51.91s-4.43,2.21-7.83,13.45
		c-3.4,11.23-7.32,30.47-1.02,40c6.3,9.53,9.35,14.81,9.35,14.81s-33.85-3.71-36.58-3.81c-2.73-0.1-34.56-9.63-42.9-17.81
		c-8.34-8.17-29.11-34.89-30.3-43.23c-1.19-8.34-1.91-14.25-1.91-14.25s3.06-49.45,3.27-51.11
		C117.32,254.99,138.56,202.35,157.54,204.73z"/>
	<path class="st2" d="M193.88,243.03"/>
	<path class="st4" d="M216.01,251.03c0,0,18.04,8.46,23.06,8.99"/>
	<path class="st5" d="M276.94,235.37c0,0,9.02,6.47,10.21,11.06s-17.19,1.02-17.19,1.02"/>
	<path class="st5" d="M295.25,391.62c0,0-1.47-40.02-8.38-55.01"/>
	<line class="st6" x1="142.3" y1="146.69" x2="146.05" y2="142.43"/>
	<line class="st6" x1="107.92" y1="144.56" x2="112.35" y2="147.54"/>
	<path class="st7" d="M92.43,155.37c0,0,5.11,7.49,6.81,9.02c1.7,1.53,16.51,13.96,26.47,18.04c9.96,4.09,15.57,5.96,24.26,5.62
		s19.74-3.57,23.32-6.3c3.57-2.72,23.49-25.53,24.51-29.62c1.02-4.09,1.7-6.09,1.7-6.09s-7.83,4.55-17.53,7.96
		c-9.7,3.4-27.91,6.81-36,8c-8.09,1.19-25.11,4.94-31.06,2.72C108.94,162.52,94.47,157.58,92.43,155.37z"/>
	<path class="st8" d="M72.13,137.92c0,0,0.13,5.62,2.04,7.28c1.91,1.66,16.07,9.26,19.11,10.84c3.04,1.58,11.16,5.11,17.33,7.13
		c6.16,2.02,18.58,1.76,25.6,0c7.02-1.76,20.68-4.7,28.98-7.12c8.3-2.43,24.51-4.81,32.3-9.36c1.27-0.74,2.4-1.45,3.42-2.13
		c5.23-3.48,7.28-6.14,7.82-8.17"/>
	<path class="st8" d="M95.24,161.28c0,0,5.36,6.26,7.91,8.04s15.64,11.71,20.3,12.89c4.66,1.19,16.39,7.31,23.62,6.38
		s12.01,0.42,20.81-4.2c8.8-4.61,14.67-9.85,19.53-15.85s10.77-12.64,12.09-16.34c1.32-3.7,1.42-7.66,1.42-7.66"/>
	<path class="st9" d="M84.07,151.06c0,0,0.03,0.2,0.09,0.53c0.34,1.82,1.62,7.81,4.32,10.07c3.19,2.68,3.45,1.66,4.6,0.89
		c1.15-0.77,2.69-5.32,2.69-5.32"/>
	<path class="st10" d="M185.84,151.06c0,0,3.59,5.86,6.17,7.28c2.58,1.42,4.71-0.36,6.23-3.64c1.52-3.28,1.26-8.66,1.26-8.66
		L185.84,151.06z"/>
	<path class="st11" d="M74.81,76.64c0,0,1.28-7.15,4.47-4.6s7.28,16.6,8.3,31.4s2.3,20.43,0,21.57c-2.3,1.15-12.77-1.28-14.3-3.96
		c-1.53-2.68-1.91-8.94-1.79-16.21C71.62,97.58,74.32,78.52,74.81,76.64z"/>
	<path class="st11" d="M187.79,61.2c-3.55,0.84-8.04,12.26-9.06,20.94c-1.02,8.68,0,21.19,1.28,28.6c1.28,7.4,0.64,12,4.21,12.51
		c3.57,0.51,14.55-3.19,17.36-4.98s8.94-2.17,9.57-5.36c0.64-3.19,0.89-7.4,0-15.96s-10.34-31.4-14.04-33.7
		C193.41,60.94,189.96,60.69,187.79,61.2z"/>
	<path class="st10" d="M182.56,87.88c0,0,1.91,7.15,6,7.4c4.09,0.26,8.04-2.43,8.04-7.4s0.77-12.08-0.89-16.38
		c-1.66-4.3-6.72-10.94-7.91-10.3c-1.2,0.64-4.9,5.23-6.28,9.57C180.14,75.1,181.46,84.99,182.56,87.88z"/>
	<path class="st10" d="M87,97.46c0,0,0.2,6.76-2.36,5.99s-6.64-4.82-7.91-8.15s-2.43-8.31-1.79-12.53c0.64-4.21,2.55-7.91,3.45-9.32
		c0.89-1.4,3.33,2.22,3.86,3.61C82.78,78.46,87,97.46,87,97.46z"/>
	<path class="st12" d="M362.56,271.62c-2.73-2.81-7.83-8-8.51-12.77c-0.68-4.77-13.28-12.26-14.47-15.49s-0.68-13.11,2.55-16.17
		s9.87-11.91,10.55-16.68c0.68-4.77,1.87-24.68,1.19-30.13s0-6.81-0.68-8c-0.46-0.81,2.48,4.41,4.4,7.8
		c0.5,0.88,1.83,0.62,1.97-0.38c0.49-3.66,1.36-9.67,2.14-13.18c1.19-5.3,1.7-7.18,2.21-9.22c0.51-2.04,4.94,16.51,7.83,21.28
		c2.89,4.77,0.17-5.39,2.21-14.1c2.04-8.71,4.26-19.26,4.6-24.54s1.53-5.62,1.53-7.83s8.51,11.03,12.94,26.62s0.85,27.51,6.3,32.61
		c5.45,5.11,12.26,4.69,13.11,10.35c0.85,5.65-3.57,11.27-5.79,17.4c-2.21,6.13-4.09,9.87-3.91,13.96c0.17,4.09,8-5.62,9.02-8.85
		c1.02-3.23,4.94,12.26,0,21.96c-4.94,9.7-4.26,19.57-4.77,22.3c-0.51,2.72-3.23,5.45-8.51,6.47
		C393.2,276.05,367.6,276.82,362.56,271.62z"/>
	<path class="st13" d="M168.52,73.13c0,0,1.28-10.53,4.34-16.66"/>
	<path class="st13" d="M94.22,78.23c0,0,1.02-7.9-1.79-13.42"/>
</g>
</svg>
