<?xml version="1.0" encoding="utf-8"?>
<!-- Generator: Adobe Illustrator 26.0.1, SVG Export Plug-In . SVG Version: 6.00 Build 0)  -->
<svg version="1.1" id="Слой_1" xmlns="http://www.w3.org/2000/svg" xmlns:xlink="http://www.w3.org/1999/xlink" x="0px" y="0px"
	 viewBox="0 0 283.46 159.1" style="enable-background:new 0 0 283.46 159.1;" xml:space="preserve">
<style type="text/css">
	.st0{fill:#FF0000;}
	.st1{opacity:0.6;fill:#FF5900;}
	.st2{opacity:0.4;fill:#FF8900;}
</style>
<path class="st0" d="M131.22,70.93h21.03c2.8,0,5.07,2.27,5.07,5.07v7c0,2.8-2.27,5.07-5.07,5.07h-21.03c-2.8,0-5.08-2.27-5.08-5.07
	v-7C126.14,73.2,128.41,70.93,131.22,70.93z"/>
<path class="st0" d="M131.22,92.79h21.03c2.8,0,5.07,2.27,5.07,5.07v7c0,2.8-2.27,5.07-5.07,5.07h-21.03c-2.8,0-5.08-2.27-5.08-5.07
	v-7C126.14,95.06,128.41,92.79,131.22,92.79z"/>
<path class="st0" d="M131.22,49.08h21.03c2.8,0,5.07,2.27,5.07,5.07v7c0,2.8-2.27,5.08-5.07,5.08h-21.03c-2.8,0-5.08-2.27-5.08-5.08
	v-7C126.14,51.35,128.41,49.08,131.22,49.08z"/>
<path class="st0" d="M171.13,70.93h21.03c2.8,0,5.07,2.27,5.07,5.07v7c0,2.8-2.27,5.07-5.07,5.07h-21.03c-2.8,0-5.07-2.27-5.07-5.07
	v-7C166.06,73.2,168.33,70.93,171.13,70.93z"/>
<path class="st0" d="M171.13,49.08h21.03c2.8,0,5.07,2.27,5.07,5.07v7c0,2.8-2.27,5.08-5.07,5.08h-21.03c-2.8,0-5.07-2.27-5.07-5.08
	v-7C166.06,51.35,168.33,49.08,171.13,49.08z"/>
<path class="st0" d="M171.13,92.79h21.03c2.8,0,5.07,2.27,5.07,5.07v7c0,2.8-2.27,5.07-5.07,5.07h-21.03c-2.8,0-5.07-2.27-5.07-5.07
	v-7C166.06,95.06,168.33,92.79,171.13,92.79z"/>
<path class="st0" d="M91.3,92.79h21.03c2.8,0,5.07,2.27,5.07,5.07v7c0,2.8-2.27,5.07-5.07,5.07H91.3c-2.8,0-5.08-2.27-5.08-5.07v-7
	C86.23,95.06,88.5,92.79,91.3,92.79z"/>
<path class="st0" d="M91.3,70.93h21.03c2.8,0,5.07,2.27,5.07,5.07v7c0,2.8-2.27,5.07-5.07,5.07H91.3c-2.8,0-5.08-2.27-5.08-5.07v-7
	C86.23,73.2,88.5,70.93,91.3,70.93z"/>
<path class="st0" d="M91.3,49.08h21.03c2.8,0,5.07,2.27,5.07,5.07v7c0,2.8-2.27,5.08-5.07,5.08H91.3c-2.8,0-5.08-2.27-5.08-5.08v-7
	C86.23,51.35,88.5,49.08,91.3,49.08z"/>
<path class="st1" d="M211.04,49.08h21.03c2.8,0,5.07,2.27,5.07,5.07v7c0,2.8-2.27,5.08-5.07,5.08h-21.03c-2.8,0-5.07-2.27-5.07-5.08
	v-7C205.97,51.35,208.24,49.08,211.04,49.08z"/>
<path class="st1" d="M211.04,70.93h21.03c2.8,0,5.07,2.27,5.07,5.07v7c0,2.8-2.27,5.07-5.07,5.07h-21.03c-2.8,0-5.07-2.27-5.07-5.07
	v-7C205.97,73.2,208.24,70.93,211.04,70.93z"/>
<path class="st1" d="M211.04,92.79h21.03c2.8,0,5.07,2.27,5.07,5.07v7c0,2.8-2.27,5.07-5.07,5.07h-21.03c-2.8,0-5.07-2.27-5.07-5.07
	v-7C205.97,95.06,208.24,92.79,211.04,92.79z"/>
<path class="st1" d="M211.04,114.64h21.03c2.8,0,5.07,2.27,5.07,5.07v7c0,2.8-2.27,5.07-5.07,5.07h-21.03
	c-2.8,0-5.07-2.27-5.07-5.07v-7C205.97,116.92,208.24,114.64,211.04,114.64z"/>
<path class="st1" d="M171.13,114.64h21.03c2.8,0,5.07,2.27,5.07,5.07v7c0,2.8-2.27,5.07-5.07,5.07h-21.03
	c-2.8,0-5.07-2.27-5.07-5.07v-7C166.06,116.92,168.33,114.64,171.13,114.64z"/>
<path class="st1" d="M131.22,114.64h21.03c2.8,0,5.07,2.27,5.07,5.07v7c0,2.8-2.27,5.07-5.07,5.07h-21.03
	c-2.8,0-5.08-2.27-5.08-5.07v-7C126.14,116.92,128.41,114.64,131.22,114.64z"/>
<path class="st1" d="M91.3,114.64h21.03c2.8,0,5.07,2.27,5.07,5.07v7c0,2.8-2.27,5.07-5.07,5.07H91.3c-2.8,0-5.08-2.27-5.08-5.07v-7
	C86.23,116.92,88.5,114.64,91.3,114.64z"/>
<path class="st1" d="M51.39,114.64h21.03c2.8,0,5.07,2.27,5.07,5.07v7c0,2.8-2.27,5.07-5.07,5.07H51.39c-2.8,0-5.08-2.27-5.08-5.07
	v-7C46.32,116.92,48.59,114.64,51.39,114.64z"/>
<path class="st1" d="M51.39,92.79h21.03c2.8,0,5.07,2.27,5.07,5.07v7c0,2.8-2.27,5.07-5.07,5.07H51.39c-2.8,0-5.08-2.27-5.08-5.07
	v-7C46.32,95.06,48.59,92.79,51.39,92.79z"/>
<path class="st1" d="M51.39,70.93h21.03c2.8,0,5.07,2.27,5.07,5.07v7c0,2.8-2.27,5.07-5.07,5.07H51.39c-2.8,0-5.08-2.27-5.08-5.07
	v-7C46.32,73.2,48.59,70.93,51.39,70.93z"/>
<path class="st1" d="M51.39,49.08h21.03c2.8,0,5.07,2.27,5.07,5.07v7c0,2.8-2.27,5.08-5.07,5.08H51.39c-2.8,0-5.08-2.27-5.08-5.08
	v-7C46.32,51.35,48.59,49.08,51.39,49.08z"/>
<path class="st1" d="M51.39,27.22h21.03c2.8,0,5.07,2.27,5.07,5.07v7c0,2.8-2.27,5.08-5.07,5.08H51.39c-2.8,0-5.08-2.27-5.08-5.08
	v-7C46.32,29.49,48.59,27.22,51.39,27.22z"/>
<path class="st1" d="M91.3,27.22h21.03c2.8,0,5.07,2.27,5.07,5.07v7c0,2.8-2.27,5.08-5.07,5.08H91.3c-2.8,0-5.08-2.27-5.08-5.08v-7
	C86.23,29.49,88.5,27.22,91.3,27.22z"/>
<path class="st1" d="M131.22,27.22h21.03c2.8,0,5.07,2.27,5.07,5.07v7c0,2.8-2.27,5.08-5.07,5.08h-21.03c-2.8,0-5.08-2.27-5.08-5.08
	v-7C126.14,29.49,128.41,27.22,131.22,27.22z"/>
<path class="st1" d="M171.13,27.22h21.03c2.8,0,5.07,2.27,5.07,5.07v7c0,2.8-2.27,5.08-5.07,5.08h-21.03c-2.8,0-5.07-2.27-5.07-5.08
	v-7C166.06,29.49,168.33,27.22,171.13,27.22z"/>
<path class="st1" d="M211.04,27.22h21.03c2.8,0,5.07,2.27,5.07,5.07v7c0,2.8-2.27,5.08-5.07,5.08h-21.03c-2.8,0-5.07-2.27-5.07-5.08
	v-7C205.97,29.49,208.24,27.22,211.04,27.22z"/>
<path class="st2" d="M11.48,136.5h21.03c2.8,0,5.08,2.27,5.08,5.07v7c0,2.8-2.27,5.07-5.08,5.07H11.48c-2.8,0-5.07-2.27-5.07-5.07
	v-7C6.4,138.77,8.68,136.5,11.48,136.5z"/>
<path class="st2" d="M11.48,114.64h21.03c2.8,0,5.08,2.27,5.08,5.07v7c0,2.8-2.27,5.07-5.08,5.07H11.48c-2.8,0-5.07-2.27-5.07-5.07
	v-7C6.4,116.92,8.68,114.64,11.48,114.64z"/>
<path class="st2" d="M11.48,92.79h21.03c2.8,0,5.08,2.27,5.08,5.07v7c0,2.8-2.27,5.07-5.08,5.07H11.48c-2.8,0-5.07-2.27-5.07-5.07
	v-7C6.4,95.06,8.68,92.79,11.48,92.79z"/>
<path class="st2" d="M11.48,70.93h21.03c2.8,0,5.08,2.27,5.08,5.07v7c0,2.8-2.27,5.07-5.08,5.07H11.48c-2.8,0-5.07-2.27-5.07-5.07
	v-7C6.4,73.2,8.68,70.93,11.48,70.93z"/>
<path class="st2" d="M11.48,49.08h21.03c2.8,0,5.08,2.27,5.08,5.07v7c0,2.8-2.27,5.08-5.08,5.08H11.48c-2.8,0-5.07-2.27-5.07-5.08
	v-7C6.4,51.35,8.68,49.08,11.48,49.08z"/>
<path class="st2" d="M11.48,27.22h21.03c2.8,0,5.08,2.27,5.08,5.07v7c0,2.8-2.27,5.08-5.08,5.08H11.48c-2.8,0-5.07-2.27-5.07-5.08
	v-7C6.4,29.49,8.68,27.22,11.48,27.22z"/>
<path class="st2" d="M211.04,136.5h21.03c2.8,0,5.07,2.27,5.07,5.07v7c0,2.8-2.27,5.07-5.07,5.07h-21.03c-2.8,0-5.07-2.27-5.07-5.07
	v-7C205.97,138.77,208.24,136.5,211.04,136.5z"/>
<path class="st2" d="M171.13,136.5h21.03c2.8,0,5.07,2.27,5.07,5.07v7c0,2.8-2.27,5.07-5.07,5.07h-21.03c-2.8,0-5.07-2.27-5.07-5.07
	v-7C166.06,138.77,168.33,136.5,171.13,136.5z"/>
<path class="st2" d="M131.22,136.5h21.03c2.8,0,5.07,2.27,5.07,5.07v7c0,2.8-2.27,5.07-5.07,5.07h-21.03c-2.8,0-5.08-2.27-5.08-5.07
	v-7C126.14,138.77,128.41,136.5,131.22,136.5z"/>
<path class="st2" d="M91.3,136.5h21.03c2.8,0,5.07,2.27,5.07,5.07v7c0,2.8-2.27,5.07-5.07,5.07H91.3c-2.8,0-5.08-2.27-5.08-5.07v-7
	C86.23,138.77,88.5,136.5,91.3,136.5z"/>
<path class="st2" d="M51.39,136.5h21.03c2.8,0,5.07,2.27,5.07,5.07v7c0,2.8-2.27,5.07-5.07,5.07H51.39c-2.8,0-5.08-2.27-5.08-5.07
	v-7C46.32,138.77,48.59,136.5,51.39,136.5z"/>
<path class="st2" d="M11.48,5.37h21.03c2.8,0,5.08,2.27,5.08,5.07v7c0,2.8-2.27,5.07-5.08,5.07H11.48c-2.8,0-5.07-2.27-5.07-5.07v-7
	C6.4,7.64,8.68,5.37,11.48,5.37z"/>
<path class="st2" d="M211.04,5.37h21.03c2.8,0,5.07,2.27,5.07,5.07v7c0,2.8-2.27,5.07-5.07,5.07h-21.03c-2.8,0-5.07-2.27-5.07-5.07
	v-7C205.97,7.64,208.24,5.37,211.04,5.37z"/>
<path class="st2" d="M171.13,5.37h21.03c2.8,0,5.07,2.27,5.07,5.07v7c0,2.8-2.27,5.07-5.07,5.07h-21.03c-2.8,0-5.07-2.27-5.07-5.07
	v-7C166.06,7.64,168.33,5.37,171.13,5.37z"/>
<path class="st2" d="M131.22,5.37h21.03c2.8,0,5.07,2.27,5.07,5.07v7c0,2.8-2.27,5.07-5.07,5.07h-21.03c-2.8,0-5.08-2.27-5.08-5.07
	v-7C126.14,7.64,128.41,5.37,131.22,5.37z"/>
<path class="st2" d="M91.3,5.37h21.03c2.8,0,5.07,2.27,5.07,5.07v7c0,2.8-2.27,5.07-5.07,5.07H91.3c-2.8,0-5.08-2.27-5.08-5.07v-7
	C86.23,7.64,88.5,5.37,91.3,5.37z"/>
<path class="st2" d="M51.39,5.37h21.03c2.8,0,5.07,2.27,5.07,5.07v7c0,2.8-2.27,5.07-5.07,5.07H51.39c-2.8,0-5.08-2.27-5.08-5.07v-7
	C46.32,7.64,48.59,5.37,51.39,5.37z"/>
<path class="st2" d="M250.96,49.08h21.03c2.8,0,5.07,2.27,5.07,5.07v7c0,2.8-2.27,5.08-5.07,5.08h-21.03c-2.8,0-5.07-2.27-5.07-5.08
	v-7C245.88,51.35,248.15,49.08,250.96,49.08z"/>
<path class="st2" d="M250.96,70.93h21.03c2.8,0,5.07,2.27,5.07,5.07v7c0,2.8-2.27,5.07-5.07,5.07h-21.03c-2.8,0-5.07-2.27-5.07-5.07
	v-7C245.88,73.2,248.15,70.93,250.96,70.93z"/>
<path class="st2" d="M250.96,92.79h21.03c2.8,0,5.07,2.27,5.07,5.07v7c0,2.8-2.27,5.07-5.07,5.07h-21.03c-2.8,0-5.07-2.27-5.07-5.07
	v-7C245.88,95.06,248.15,92.79,250.96,92.79z"/>
<path class="st2" d="M250.96,114.64h21.03c2.8,0,5.07,2.27,5.07,5.07v7c0,2.8-2.27,5.07-5.07,5.07h-21.03
	c-2.8,0-5.07-2.27-5.07-5.07v-7C245.88,116.92,248.15,114.64,250.96,114.64z"/>
<path class="st2" d="M250.96,27.22h21.03c2.8,0,5.07,2.27,5.07,5.07v7c0,2.8-2.27,5.08-5.07,5.08h-21.03c-2.8,0-5.07-2.27-5.07-5.08
	v-7C245.88,29.49,248.15,27.22,250.96,27.22z"/>
<path class="st2" d="M250.96,136.5h21.03c2.8,0,5.07,2.27,5.07,5.07v7c0,2.8-2.27,5.07-5.07,5.07h-21.03c-2.8,0-5.07-2.27-5.07-5.07
	v-7C245.88,138.77,248.15,136.5,250.96,136.5z"/>
<path class="st2" d="M250.96,5.37h21.03c2.8,0,5.07,2.27,5.07,5.07v7c0,2.8-2.27,5.07-5.07,5.07h-21.03c-2.8,0-5.07-2.27-5.07-5.07
	v-7C245.88,7.64,248.15,5.37,250.96,5.37z"/>
</svg>
