<?xml version="1.0" encoding="utf-8"?>
<!-- Generator: Adobe Illustrator 26.0.1, SVG Export Plug-In . SVG Version: 6.00 Build 0)  -->
<svg version="1.1" id="Слой_1" xmlns="http://www.w3.org/2000/svg" xmlns:xlink="http://www.w3.org/1999/xlink" x="0px" y="0px"
	 viewBox="0 0 283.46 159.1" style="enable-background:new 0 0 283.46 159.1;" xml:space="preserve">
<style type="text/css">
	.st0{opacity:0.8;fill:#009999;}
	.st1{opacity:0.8;fill:#086FA1;}
	.st2{opacity:0.6;fill:#00A876;}
	.st3{opacity:0.6;fill:#009999;}
	.st4{opacity:0.8;fill:#00A876;}
	.st5{fill:#009999;}
	.st6{fill:#086FA1;}
	.st7{opacity:0.4;fill:#00A876;}
	.st8{fill:#00A876;}
</style>
<path class="st0" d="M131.22,76.93h21.03c2.8,0,5.07,2.27,5.07,5.07v7c0,2.8-2.27,5.07-5.07,5.07h-21.03c-2.8,0-5.08-2.27-5.08-5.07
	v-7C126.14,79.2,128.41,76.93,131.22,76.93z"/>
<path class="st1" d="M131.22,98.21h21.03c2.8,0,5.07,2.27,5.07,5.07v7c0,2.8-2.27,5.07-5.07,5.07h-21.03c-2.8,0-5.08-2.27-5.08-5.07
	v-7C126.14,100.48,128.41,98.21,131.22,98.21z"/>
<path class="st2" d="M131.22,54.01h21.03c2.8,0,5.07,2.27,5.07,5.08v7c0,2.8-2.27,5.08-5.07,5.08h-21.03c-2.8,0-5.08-2.27-5.08-5.08
	v-7C126.14,56.28,128.41,54.01,131.22,54.01z"/>
<path class="st0" d="M171.13,76.93h21.03c2.8,0,5.07,2.27,5.07,5.07v7c0,2.8-2.27,5.07-5.07,5.07h-21.03c-2.8,0-5.07-2.27-5.07-5.07
	v-7C166.06,79.2,168.33,76.93,171.13,76.93z"/>
<path class="st3" d="M171.13,54.01h21.03c2.8,0,5.07,2.27,5.07,5.08v7c0,2.8-2.27,5.08-5.07,5.08h-21.03c-2.8,0-5.07-2.27-5.07-5.08
	v-7C166.06,56.28,168.33,54.01,171.13,54.01z"/>
<path class="st1" d="M171.13,98.21h21.03c2.8,0,5.07,2.27,5.07,5.07v7c0,2.8-2.27,5.07-5.07,5.07h-21.03c-2.8,0-5.07-2.27-5.07-5.07
	v-7C166.06,100.48,168.33,98.21,171.13,98.21z"/>
<path class="st0" d="M91.3,98.21h21.03c2.8,0,5.07,2.27,5.07,5.07v7c0,2.8-2.27,5.07-5.07,5.07H91.3c-2.8,0-5.08-2.27-5.08-5.07v-7
	C86.23,100.48,88.5,98.21,91.3,98.21z"/>
<path class="st4" d="M91.3,76.93h21.03c2.8,0,5.07,2.27,5.07,5.07v7c0,2.8-2.27,5.07-5.07,5.07H91.3c-2.8,0-5.08-2.27-5.08-5.07v-7
	C86.23,79.2,88.5,76.93,91.3,76.93z"/>
<path class="st2" d="M91.3,54.01h21.03c2.8,0,5.07,2.27,5.07,5.08v7c0,2.8-2.27,5.08-5.07,5.08H91.3c-2.8,0-5.08-2.27-5.08-5.08v-7
	C86.23,56.28,88.5,54.01,91.3,54.01z"/>
<path class="st4" d="M211.04,76.93h21.03c2.8,0,5.07,2.27,5.07,5.07v7c0,2.8-2.27,5.07-5.07,5.07h-21.03c-2.8,0-5.07-2.27-5.07-5.07
	v-7C205.97,79.2,208.24,76.93,211.04,76.93z"/>
<path class="st0" d="M211.04,98.21h21.03c2.8,0,5.07,2.27,5.07,5.07v7c0,2.8-2.27,5.07-5.07,5.07h-21.03c-2.8,0-5.07-2.27-5.07-5.07
	v-7C205.97,100.48,208.24,98.21,211.04,98.21z"/>
<path class="st5" d="M211.04,118.13h21.03c2.8,0,5.07,2.27,5.07,5.07v7c0,2.8-2.27,5.07-5.07,5.07h-21.03
	c-2.8,0-5.07-2.27-5.07-5.07v-7C205.97,120.4,208.24,118.13,211.04,118.13z"/>
<path class="st6" d="M171.13,118.13h21.03c2.8,0,5.07,2.27,5.07,5.07v7c0,2.8-2.27,5.07-5.07,5.07h-21.03
	c-2.8,0-5.07-2.27-5.07-5.07v-7C166.06,120.4,168.33,118.13,171.13,118.13z"/>
<path class="st6" d="M131.22,118.13h21.03c2.8,0,5.07,2.27,5.07,5.07v7c0,2.8-2.27,5.07-5.07,5.07h-21.03
	c-2.8,0-5.08-2.27-5.08-5.07v-7C126.14,120.4,128.41,118.13,131.22,118.13z"/>
<path class="st6" d="M91.3,118.13h21.03c2.8,0,5.07,2.27,5.07,5.07v7c0,2.8-2.27,5.07-5.07,5.07H91.3c-2.8,0-5.08-2.27-5.08-5.07v-7
	C86.23,120.4,88.5,118.13,91.3,118.13z"/>
<path class="st5" d="M51.39,118.13h21.03c2.8,0,5.07,2.27,5.07,5.07v7c0,2.8-2.27,5.07-5.07,5.07H51.39c-2.8,0-5.08-2.27-5.08-5.07
	v-7C46.32,120.4,48.59,118.13,51.39,118.13z"/>
<path class="st4" d="M51.39,98.21h21.03c2.8,0,5.07,2.27,5.07,5.07v7c0,2.8-2.27,5.07-5.07,5.07H51.39c-2.8,0-5.08-2.27-5.08-5.07
	v-7C46.32,100.48,48.59,98.21,51.39,98.21z"/>
<path class="st2" d="M131.22,30.51h21.03c2.8,0,5.07,2.27,5.07,5.07v7c0,2.8-2.27,5.07-5.07,5.07h-21.03c-2.8,0-5.08-2.27-5.08-5.07
	v-7C126.14,32.78,128.41,30.51,131.22,30.51z"/>
<path class="st2" d="M171.13,30.51h21.03c2.8,0,5.07,2.27,5.07,5.07v7c0,2.8-2.27,5.07-5.07,5.07h-21.03c-2.8,0-5.07-2.27-5.07-5.07
	v-7C166.06,32.78,168.33,30.51,171.13,30.51z"/>
<path class="st5" d="M11.48,136.5h21.03c2.8,0,5.08,2.27,5.08,5.07v7c0,2.8-2.27,5.07-5.08,5.07H11.48c-2.8,0-5.07-2.27-5.07-5.07
	v-7C6.4,138.77,8.68,136.5,11.48,136.5z"/>
<path class="st6" d="M211.04,136.5h21.03c2.8,0,5.07,2.27,5.07,5.07v7c0,2.8-2.27,5.07-5.07,5.07h-21.03c-2.8,0-5.07-2.27-5.07-5.07
	v-7C205.97,138.77,208.24,136.5,211.04,136.5z"/>
<path class="st6" d="M171.13,136.5h21.03c2.8,0,5.07,2.27,5.07,5.07v7c0,2.8-2.27,5.07-5.07,5.07h-21.03c-2.8,0-5.07-2.27-5.07-5.07
	v-7C166.06,138.77,168.33,136.5,171.13,136.5z"/>
<path class="st6" d="M131.22,136.5h21.03c2.8,0,5.07,2.27,5.07,5.07v7c0,2.8-2.27,5.07-5.07,5.07h-21.03c-2.8,0-5.08-2.27-5.08-5.07
	v-7C126.14,138.77,128.41,136.5,131.22,136.5z"/>
<path class="st6" d="M91.3,136.5h21.03c2.8,0,5.07,2.27,5.07,5.07v7c0,2.8-2.27,5.07-5.07,5.07H91.3c-2.8,0-5.08-2.27-5.08-5.07v-7
	C86.23,138.77,88.5,136.5,91.3,136.5z"/>
<path class="st6" d="M51.39,136.5h21.03c2.8,0,5.07,2.27,5.07,5.07v7c0,2.8-2.27,5.07-5.07,5.07H51.39c-2.8,0-5.08-2.27-5.08-5.07
	v-7C46.32,138.77,48.59,136.5,51.39,136.5z"/>
<path class="st7" d="M131.22,5.37h21.03c2.8,0,5.07,2.27,5.07,5.07v7c0,2.8-2.27,5.07-5.07,5.07h-21.03c-2.8,0-5.08-2.27-5.08-5.07
	v-7C126.14,7.64,128.41,5.37,131.22,5.37z"/>
<path class="st8" d="M250.96,118.13h21.03c2.8,0,5.07,2.27,5.07,5.07v7c0,2.8-2.27,5.07-5.07,5.07h-21.03
	c-2.8,0-5.07-2.27-5.07-5.07v-7C245.88,120.4,248.15,118.13,250.96,118.13z"/>
<path class="st5" d="M250.96,136.5h21.03c2.8,0,5.07,2.27,5.07,5.07v7c0,2.8-2.27,5.07-5.07,5.07h-21.03c-2.8,0-5.07-2.27-5.07-5.07
	v-7C245.88,138.77,248.15,136.5,250.96,136.5z"/>
</svg>
